<?xml version="1.0" standalone="no"?>
<!DOCTYPE svg PUBLIC "-//W3C//DTD SVG 20010904//EN"
 "http://www.w3.org/TR/2001/REC-SVG-20010904/DTD/svg10.dtd">
<svg version="1.0" xmlns="http://www.w3.org/2000/svg"
 width="800.000000pt" height="640.000000pt" viewBox="0 0 800.000000 640.000000"
 preserveAspectRatio="xMidYMid meet">
<metadata>
Created by potrace 1.16, written by Peter Selinger 2001-2019
</metadata>
<g transform="translate(0.000000,640.000000) scale(0.100000,-0.100000)"
fill="#000000" stroke="none">
<path d="M3876 4473 c8 -111 -11 -288 -38 -362 -37 -99 -92 -160 -180 -198
-15 -7 -78 -22 -140 -33 -203 -38 -275 -73 -324 -156 -83 -142 -85 -333 -5
-465 31 -51 106 -135 159 -179 l53 -45 -43 -8 c-145 -28 -277 -96 -365 -188
-38 -41 -123 -164 -123 -179 0 -3 37 -17 83 -30 121 -35 228 -92 276 -147 50
-56 65 -107 57 -193 -19 -194 -19 -229 -2 -274 20 -53 82 -112 151 -146 43
-21 64 -25 145 -25 78 0 105 5 150 25 70 30 140 74 212 133 47 38 70 49 143
66 188 45 318 114 435 231 123 122 162 204 206 438 3 15 11 22 27 22 36 0 87
38 103 77 49 116 -71 243 -175 187 -20 -10 -49 -40 -66 -65 -39 -59 -99 -129
-92 -107 18 53 78 318 92 407 25 163 30 415 11 540 -59 382 -271 637 -612 736
-47 14 -99 25 -115 25 l-29 0 6 -87z m462 -412 c161 -228 201 -613 116 -1111
-14 -79 -27 -146 -29 -149 -10 -10 -463 426 -577 555 -96 109 -178 213 -178
227 0 5 14 5 32 2 95 -21 228 -106 335 -213 74 -74 223 -264 223 -284 0 -6 2
-9 5 -6 3 2 -35 85 -84 184 -98 197 -204 438 -244 554 -35 101 -57 190 -47
190 18 0 128 -90 166 -136 99 -119 173 -257 240 -454 24 -69 44 -122 44 -119
0 3 -7 54 -15 113 -44 315 -61 706 -30 706 1 0 21 -27 43 -59z m-594 -1228
c136 -63 313 -132 436 -169 47 -14 88 -29 93 -33 4 -4 -82 -55 -190 -113 -182
-97 -233 -123 -363 -180 -65 -29 -183 -69 -188 -64 -8 8 37 63 92 114 62 56
197 129 303 163 40 12 71 24 69 26 -1 2 -90 -8 -197 -21 -301 -38 -519 -45
-519 -18 0 12 102 71 160 93 83 32 186 50 318 56 l123 6 -158 32 c-229 47
-423 104 -423 125 0 25 153 49 260 42 52 -3 88 -15 184 -59z m673 -352 c-7
-83 -30 -133 -93 -195 -50 -51 -98 -85 -188 -136 -65 -36 -64 -29 0 40 59 62
134 157 212 267 37 51 68 93 71 93 2 0 1 -31 -2 -69z"/>
</g>
</svg>
