<?xml version="1.0" standalone="no"?>
<!DOCTYPE svg PUBLIC "-//W3C//DTD SVG 20010904//EN"
 "http://www.w3.org/TR/2001/REC-SVG-20010904/DTD/svg10.dtd">
<svg version="1.0" xmlns="http://www.w3.org/2000/svg"
 width="526.000000pt" height="520.000000pt" viewBox="0 0 526.000000 520.000000"
 preserveAspectRatio="xMidYMid meet">
<metadata>
Created by potrace 1.16, written by Peter Selinger 2001-2019
</metadata>
<g transform="translate(0.000000,520.000000) scale(0.100000,-0.100000)"
fill="#000000" stroke="none">
<path d="M3008 4129 c-21 -15 -31 -17 -53 -9 -40 15 -44 13 -33 -24 9 -29 8
-38 -11 -65 l-22 -31 40 0 c30 0 44 -6 59 -25 25 -32 28 -31 36 5 3 17 14 33
23 36 58 18 59 19 25 39 -25 15 -32 26 -34 56 l-3 38 -27 -20z"/>
<path d="M3680 3804 c-97 -22 -93 -20 -75 -47 11 -18 16 -59 17 -178 3 -169
-7 -225 -47 -265 -63 -63 -86 -8 -93 227 -3 124 -1 182 7 197 14 26 14 26 -73
4 -60 -15 -66 -19 -52 -31 13 -11 16 -37 16 -162 0 -179 11 -238 52 -279 23
-23 38 -30 69 -30 47 0 107 23 115 45 11 28 24 15 24 -25 0 -35 -3 -40 -27
-46 -103 -22 -197 -64 -213 -93 -41 -77 55 -163 164 -147 91 14 147 80 160
190 l7 55 62 4 62 3 -61 2 -61 2 -7 261 c-6 250 -5 264 14 295 10 19 16 34 12
33 -4 0 -36 -7 -72 -15z m-45 -646 c-10 -68 -24 -104 -48 -125 -73 -67 -196 0
-140 75 17 23 156 91 186 92 5 0 6 -19 2 -42z"/>
<path d="M3055 3672 c-66 -13 -122 -27 -124 -29 -3 -2 4 -10 16 -18 18 -12 21
-29 27 -132 3 -65 7 -218 7 -340 1 -196 0 -226 -16 -249 -17 -27 -17 -27 6
-21 13 3 61 13 107 23 80 17 82 18 58 31 -14 7 -30 22 -36 33 -5 10 -10 86
-10 172 0 136 2 157 20 186 16 27 26 33 48 30 39 -4 49 -44 57 -246 l8 -174
31 6 c17 3 50 8 74 12 47 7 50 11 25 29 -14 11 -19 41 -26 181 -10 184 -22
229 -65 245 l-25 10 25 27 c37 41 48 76 48 151 0 112 -31 121 -255 73z m155
-32 c22 -14 18 -119 -7 -161 -18 -33 -95 -99 -114 -99 -5 0 -9 55 -9 125 l0
124 33 10 c43 12 79 13 97 1z"/>
<path d="M1915 3656 l-100 -22 -16 -59 c-20 -71 -100 -345 -135 -463 -14 -46
-29 -81 -32 -77 -4 4 -48 122 -98 263 l-91 257 -34 3 c-19 2 -97 -13 -174 -33
-154 -39 -219 -73 -266 -138 -77 -106 -52 -295 45 -341 118 -56 269 65 222
177 -8 19 -20 38 -26 42 -20 12 -72 8 -81 -7 -18 -28 -9 -36 39 -35 l47 2 3
-43 c3 -39 -1 -47 -36 -83 -35 -34 -45 -39 -86 -39 -26 0 -57 7 -71 16 -55 36
-74 179 -34 261 27 55 66 84 157 117 86 31 137 34 151 9 5 -10 10 -206 12
-438 4 -419 4 -420 -18 -457 -26 -45 -31 -44 109 -15 99 21 145 37 105 37 -9
0 -20 8 -25 18 -13 24 -26 710 -14 697 5 -5 29 -64 51 -130 23 -66 61 -171 83
-232 41 -112 42 -113 73 -113 l32 0 33 118 c18 64 59 209 90 321 32 112 59
200 61 195 2 -5 2 -179 -1 -386 l-5 -377 -28 -29 -29 -30 99 20 c54 12 99 22
101 24 2 1 -6 12 -17 23 -21 21 -21 29 -21 439 0 386 2 420 19 458 10 23 29
49 42 58 l23 16 -29 -1 c-17 0 -75 -11 -130 -23z"/>
<path d="M2635 3584 c-60 -13 -120 -26 -132 -29 -22 -5 -22 -6 -4 -24 15 -15
19 -42 24 -187 6 -141 9 -387 7 -496 0 -15 -7 -34 -16 -42 -11 -12 -12 -16 -2
-16 14 0 181 32 187 36 2 2 -10 14 -25 28 -29 24 -29 25 -34 168 -3 78 -2 157
2 174 16 63 76 96 98 54 12 -23 34 -312 28 -372 -3 -30 0 -37 12 -33 8 2 47 9
85 16 59 10 66 14 48 22 -26 11 -30 33 -39 219 -7 148 -20 195 -61 213 -27 11
-29 21 -8 29 44 17 75 195 42 240 -20 27 -88 28 -212 0z m125 -39 c17 -20 14
-118 -4 -154 -18 -33 -93 -101 -113 -101 -10 0 -13 28 -13 124 l0 125 43 9
c61 14 73 14 87 -3z"/>
<path d="M4221 3521 c-7 -26 -25 -51 -52 -72 l-41 -33 48 -21 c31 -14 58 -35
74 -58 14 -20 27 -37 30 -37 3 0 13 23 23 50 10 28 21 50 25 50 4 0 21 11 37
24 l30 25 -50 21 c-32 13 -59 33 -74 55 -13 19 -27 35 -31 35 -4 0 -12 -18
-19 -39z"/>
<path d="M2248 3501 c-92 -20 -168 -38 -168 -41 -1 -3 3 -18 9 -33 15 -38 15
-655 1 -693 -6 -15 -9 -28 -7 -30 2 -2 82 12 177 31 95 19 175 35 177 35 2 0
3 28 2 63 0 46 -3 56 -9 40 -5 -12 -20 -29 -34 -38 -26 -18 -172 -55 -181 -47
-3 3 -5 67 -5 143 0 158 -11 144 123 155 l77 7 0 61 c-1 51 -3 58 -12 41 -16
-28 -25 -33 -88 -46 -30 -6 -65 -13 -78 -16 l-23 -5 3 153 3 153 83 20 c79 19
86 19 113 4 l29 -17 0 49 c0 34 -4 50 -12 49 -7 -1 -88 -18 -180 -38z"/>
<path d="M4647 3141 c-137 -45 -187 -118 -156 -228 8 -30 66 -127 153 -258
155 -232 174 -276 156 -358 -31 -149 -143 -245 -345 -297 -85 -22 -254 -40
-374 -40 -229 0 -486 -75 -662 -194 -49 -33 -60 -36 -124 -36 -38 0 -101 -5
-140 -10 -83 -12 -218 -41 -213 -46 2 -2 62 4 133 12 71 8 151 14 179 12 l51
-3 -60 -39 c-74 -48 -231 -127 -317 -159 -111 -42 -310 -97 -389 -107 -189
-23 -445 45 -552 148 -21 20 -50 60 -65 87 -23 46 -26 65 -34 235 -10 203 -24
256 -74 278 l-25 12 24 26 c37 39 57 114 57 209 0 81 -1 84 -31 109 -20 17
-42 26 -66 26 -60 0 -476 -90 -509 -111 -41 -25 -59 -62 -57 -116 2 -49 38
-107 79 -125 54 -25 154 39 154 98 0 69 -66 116 -114 81 -15 -11 -12 -12 22
-9 32 3 42 0 56 -19 33 -48 14 -102 -40 -115 -68 -17 -118 73 -82 150 21 48
122 81 168 56 32 -17 39 -74 42 -340 3 -341 5 -373 26 -364 10 3 36 11 60 16
l42 10 0 129 c0 137 10 178 49 199 63 33 81 -9 88 -209 l6 -157 33 -24 c19
-14 57 -52 85 -85 140 -164 323 -241 595 -252 166 -7 277 9 444 64 130 42 338
143 448 217 l82 56 123 -17 c85 -12 194 -17 362 -17 401 -1 566 32 614 123 29
53 -47 124 -178 165 -39 12 -73 25 -76 27 -2 3 35 11 83 18 229 33 395 95 485
184 78 77 92 112 92 232 0 93 -2 105 -32 165 -17 36 -81 133 -141 215 -118
163 -147 220 -137 272 15 81 167 122 231 62 50 -47 56 -132 11 -164 -26 -18
-78 -20 -95 -3 -22 22 -13 46 29 81 45 37 45 57 0 57 -70 0 -106 -92 -56 -143
36 -36 70 -42 113 -19 92 48 92 180 -1 228 -49 26 -160 28 -230 5z m-2879
-756 c2 -36 -4 -86 -14 -125 -14 -53 -26 -73 -66 -112 -78 -76 -79 -74 -76
114 l3 163 50 12 c28 6 61 11 75 10 23 -2 25 -6 28 -62z m2607 -509 c78 -24
145 -70 145 -101 0 -62 -120 -89 -390 -89 -175 1 -467 18 -555 33 l-40 7 68
38 c96 54 186 83 345 111 156 28 337 29 427 1z"/>
<path d="M4253 3058 l-93 -20 25 -29 c31 -38 39 -98 25 -195 -17 -117 -16
-116 -55 -108 -74 13 -145 -37 -145 -103 0 -91 82 -137 124 -70 21 33 -30 81
-63 60 -38 -24 -44 25 -6 62 18 19 35 25 69 25 25 0 47 -4 50 -8 5 -9 -57
-416 -79 -516 -9 -38 -21 -78 -27 -89 -9 -18 -8 -19 13 -13 13 3 41 9 62 12
37 6 37 7 20 26 -11 12 -17 34 -16 56 1 44 64 485 69 491 6 6 80 -66 106 -102
24 -34 87 -273 88 -332 0 -22 -7 -51 -16 -64 -19 -27 -33 -27 123 5 l82 17
-24 29 c-14 16 -29 48 -36 71 -27 102 -133 471 -161 562 -33 106 -41 193 -19
233 15 28 10 28 -116 0z"/>
<path d="M3928 2986 c-54 -12 -99 -24 -102 -27 -4 -4 -92 -289 -142 -461 -16
-54 -32 -98 -35 -98 -4 0 -23 44 -42 98 -20 53 -59 162 -88 241 l-52 143 -41
-6 c-23 -4 -76 -14 -118 -23 -69 -14 -75 -18 -55 -27 44 -23 48 -61 45 -497
-3 -384 -4 -408 -22 -428 -11 -12 -17 -23 -15 -25 2 -1 52 9 111 23 98 24 105
27 87 41 -19 14 -19 30 -17 430 l3 415 86 -240 c48 -132 95 -264 105 -293 l19
-53 40 7 c22 3 42 10 45 15 3 4 41 131 84 281 43 150 83 278 88 283 6 6 8
-127 6 -350 -4 -360 -10 -415 -41 -415 -6 0 -8 -2 -5 -5 3 -3 29 -1 59 5 84
17 83 17 65 42 -14 19 -16 77 -16 430 0 263 4 417 11 435 5 15 22 40 37 56 31
33 28 33 -100 3z"/>
<path d="M717 2861 c-5 -22 -13 -31 -36 -36 -43 -9 -46 -21 -11 -41 25 -15 30
-25 30 -56 l0 -39 30 22 c25 19 33 21 55 11 40 -18 44 -15 34 23 -9 30 -7 40
11 65 l21 30 -39 0 c-31 0 -43 5 -56 25 -22 33 -32 32 -39 -4z"/>
<path d="M2923 2777 c-128 -29 -234 -54 -236 -57 -3 -3 -7 -27 -10 -54 l-4
-50 19 28 c22 30 76 60 126 71 l32 7 0 -440 0 -440 -27 -33 c-23 -27 -24 -31
-7 -26 30 9 248 57 259 57 5 0 -1 6 -14 13 -14 6 -27 23 -31 37 -3 14 -5 214
-5 445 l0 420 48 3 c35 2 58 -3 83 -17 l34 -20 0 54 c0 46 -3 55 -17 54 -10 0
-122 -24 -250 -52z"/>
<path d="M2368 2651 c-129 -35 -189 -93 -196 -190 -7 -96 34 -148 213 -271
178 -121 255 -223 263 -347 2 -33 -1 -77 -7 -96 -38 -113 -224 -191 -329 -138
-52 26 -76 70 -76 137 -1 117 109 192 223 153 32 -11 61 -52 61 -85 0 -33 -43
-106 -74 -126 l-31 -20 30 7 c73 16 125 73 140 155 8 46 -28 116 -75 148 -30
20 -45 23 -106 20 -57 -3 -79 -9 -113 -31 -135 -89 -129 -314 9 -385 38 -20
56 -23 117 -19 136 8 269 102 331 234 41 88 37 168 -11 266 -40 81 -95 137
-284 286 -51 41 -99 84 -108 97 -51 79 38 194 150 194 48 0 93 -25 101 -55 8
-34 -8 -75 -38 -98 -21 -15 -30 -17 -47 -8 -30 16 -26 47 9 73 37 27 39 48 5
48 -31 0 -75 -41 -75 -70 0 -32 44 -70 80 -70 45 0 90 47 90 94 0 106 -90 141
-252 97z"/>
<path d="M1976 2203 l7 -358 51 -47 c28 -26 53 -47 57 -48 6 0 1 489 -7 647
l-6 112 -45 26 c-25 14 -49 25 -54 25 -5 0 -6 -155 -3 -357z"/>
<path d="M800 2434 c-16 -8 -56 -14 -107 -14 -144 0 -249 -35 -326 -109 -75
-71 -87 -135 -88 -471 -1 -194 3 -272 14 -326 26 -120 71 -186 149 -218 43
-18 151 -21 218 -5 48 11 178 55 197 67 6 4 14 57 18 125 7 112 6 119 -11 115
-11 -2 -23 -18 -30 -44 -28 -97 -81 -151 -177 -179 -104 -31 -150 -17 -187 55
-19 36 -31 346 -21 563 8 177 9 189 37 244 34 67 71 91 158 100 53 5 57 4 91
-30 19 -19 38 -49 41 -66 7 -34 12 -37 36 -18 13 9 17 35 20 120 2 59 1 107
-2 106 -3 -1 -16 -7 -30 -15z"/>
<path d="M940 2418 c6 -18 13 -243 17 -499 l6 -467 -22 -37 -22 -37 23 5 c13
3 61 13 106 23 68 14 81 20 68 29 -28 21 -36 64 -36 187 0 149 13 228 48 292
32 59 55 76 79 60 27 -17 31 -46 32 -224 2 -251 13 -337 52 -410 38 -72 97
-129 176 -168 69 -35 107 -44 179 -43 131 1 247 131 246 275 0 80 -24 137 -79
185 -77 68 -199 92 -273 53 -69 -36 -110 -166 -79 -249 12 -34 64 -90 101
-109 15 -8 47 -14 71 -14 61 0 107 41 107 95 0 46 -15 75 -40 75 -23 0 -35
-33 -21 -59 38 -71 -22 -119 -89 -71 -38 27 -60 78 -60 138 0 45 4 53 37 82
34 30 40 32 102 28 80 -4 124 -31 152 -92 67 -148 -53 -323 -208 -302 -115 15
-192 107 -223 266 -6 32 -9 147 -8 275 3 212 2 222 -20 262 -12 24 -35 49 -52
58 -58 30 -146 12 -202 -42 l-28 -27 -2 160 c-2 87 -3 195 -3 239 l0 80 -55 0
c-30 0 -63 4 -72 9 -15 7 -16 4 -8 -26z"/>
</g>
</svg>
