<?xml version="1.0" standalone="no"?>
<!DOCTYPE svg PUBLIC "-//W3C//DTD SVG 20010904//EN"
 "http://www.w3.org/TR/2001/REC-SVG-20010904/DTD/svg10.dtd">
<svg version="1.0" xmlns="http://www.w3.org/2000/svg"
 width="900.000000pt" height="500.000000pt" viewBox="0 0 900.000000 500.000000"
 preserveAspectRatio="xMidYMid meet">
<metadata>
Created by potrace 1.16, written by Peter Selinger 2001-2019
</metadata>
<g transform="translate(0.000000,500.000000) scale(0.100000,-0.100000)"
fill="#000000" stroke="none">
<path d="M4435 4249 c-104 -59 -189 -111 -189 -115 1 -5 14 -67 29 -137 l27
-129 -28 -136 c-15 -76 -30 -140 -34 -145 -3 -4 -48 11 -100 33 l-94 40 -525
0 -526 0 -205 -121 c-113 -66 -233 -137 -267 -157 l-62 -36 -84 -160 c-46 -89
-150 -288 -231 -442 l-147 -281 76 -494 c41 -272 77 -503 80 -515 4 -16 672
-644 745 -700 9 -7 320 -37 785 -75 l770 -63 425 23 c909 49 815 40 1164 119
170 39 312 74 316 79 4 4 87 123 186 263 98 140 220 312 269 382 l91 127 43
429 43 428 -143 435 c-78 239 -145 437 -148 441 -3 4 -169 59 -369 122 l-363
116 -668 0 -669 0 35 138 36 137 -33 235 c-18 129 -36 242 -39 251 -5 12 -43
-5 -196 -92z m-1015 -1132 c0 -7 159 -560 162 -563 2 -2 91 98 197 221 106
124 195 225 197 225 2 0 4 -141 4 -313 l0 -313 -486 87 c-267 48 -487 89 -489
91 -4 5 399 567 408 567 4 1 7 0 7 -2z m1941 -380 l152 -188 100 192 c54 105
103 187 107 182 5 -4 56 -109 113 -233 57 -124 114 -245 125 -269 12 -25 21
-45 19 -46 -1 -2 -90 -8 -197 -14 -107 -6 -300 -18 -429 -26 -128 -9 -235 -14
-236 -13 -6 6 80 608 87 605 3 -1 75 -87 159 -190z m-682 -444 c72 -89 131
-165 131 -168 0 -3 -126 -5 -281 -5 -154 0 -279 4 -277 8 6 17 283 331 289
329 4 -1 66 -75 138 -164z m-2027 -193 c37 -10 615 -173 765 -216 l53 -14 2
-178 3 -177 223 -41 c149 -27 225 -37 228 -30 1 6 14 103 28 215 14 112 27
205 29 207 1 2 106 -3 232 -11 127 -7 408 -23 625 -35 217 -12 401 -23 408
-25 10 -4 12 -44 10 -182 l-3 -178 220 -3 c121 -1 224 -1 230 2 8 2 -1 75 -25
219 l-37 215 266 81 c146 44 331 100 411 125 80 24 147 42 148 41 2 -2 -84
-165 -191 -362 -107 -197 -217 -401 -246 -454 l-51 -96 -387 -107 -388 -107
-252 1 -253 0 0 195 0 195 -230 0 -230 0 0 -196 0 -197 -37 7 c-21 3 -171 28
-333 54 l-295 49 -238 119 -238 119 -251 380 c-138 209 -256 386 -262 394 -9
12 -8 13 6 8 9 -3 36 -11 60 -17z"/>
</g>
</svg>
