<?xml version="1.0" standalone="no"?>
<!DOCTYPE svg PUBLIC "-//W3C//DTD SVG 20010904//EN"
 "http://www.w3.org/TR/2001/REC-SVG-20010904/DTD/svg10.dtd">
<svg version="1.0" xmlns="http://www.w3.org/2000/svg"
 width="570.000000pt" height="456.000000pt" viewBox="0 0 570.000000 456.000000"
 preserveAspectRatio="xMidYMid meet">
<metadata>
Created by potrace 1.16, written by Peter Selinger 2001-2019
</metadata>
<g transform="translate(0.000000,456.000000) scale(0.100000,-0.100000)"
fill="#000000" stroke="none">
<path d="M2465 3449 c-121 -27 -205 -129 -205 -250 0 -154 107 -271 250 -271
70 -1 118 20 169 72 33 34 81 127 81 157 0 4 -22 -18 -49 -48 l-48 -54 -70 0
c-59 0 -76 4 -112 28 -83 55 -105 169 -52 263 31 54 58 76 106 89 27 7 28 8
10 15 -24 10 -30 10 -80 -1z"/>
<path d="M2825 2942 c-16 -2 -43 -16 -59 -30 -26 -24 -41 -52 -107 -199 -12
-26 -19 -64 -19 -103 0 -47 -6 -73 -30 -120 -16 -33 -30 -66 -30 -74 0 -8 -9
-17 -19 -21 -28 -8 -50 -48 -71 -124 -19 -66 -86 -221 -96 -221 -3 0 -33 57
-66 128 -59 124 -99 182 -125 182 -7 0 -22 9 -33 20 -16 16 -18 25 -10 40 6
11 14 19 18 19 22 -4 31 5 46 41 9 22 16 59 16 81 0 55 -38 177 -59 188 -25
12 -111 1 -111 -14 0 -8 9 -17 20 -20 11 -3 25 -16 32 -28 10 -19 7 -24 -18
-42 -46 -32 -124 -114 -124 -130 0 -8 -14 -41 -30 -74 -21 -41 -39 -62 -60
-71 -42 -18 -37 -30 12 -30 56 0 296 -77 307 -99 5 -9 16 -52 25 -96 25 -126
63 -238 96 -283 25 -35 36 -42 63 -42 48 0 109 56 164 152 25 43 50 75 54 71
20 -21 39 -111 39 -182 l0 -78 -75 -119 c-41 -65 -75 -125 -75 -133 0 -8 15
10 33 40 19 30 57 92 86 139 l53 85 -6 83 c-4 59 -13 100 -31 139 -14 31 -23
58 -21 61 6 5 46 -36 93 -95 l32 -40 113 -1 112 0 26 30 c51 61 79 88 90 88 7
0 9 -7 5 -17 -3 -10 -14 -66 -22 -124 l-16 -107 61 -103 c33 -57 73 -130 87
-163 14 -32 28 -56 31 -54 8 8 -33 94 -98 206 -49 86 -61 115 -60 147 2 61 34
227 42 218 3 -4 32 -47 64 -95 64 -97 147 -181 174 -176 40 7 131 234 157 390
11 67 32 82 125 89 55 4 87 11 94 20 6 8 28 25 49 38 34 21 38 27 33 53 -3 16
0 48 6 72 9 34 9 50 -2 75 -15 38 -68 84 -87 77 -8 -3 -12 -2 -9 3 3 5 -4 11
-17 15 -72 19 -136 -11 -176 -83 -22 -40 -23 -48 -12 -93 17 -76 14 -97 -18
-124 -29 -24 -85 -112 -135 -212 -15 -30 -29 -52 -30 -50 -2 1 -34 74 -72 162
-49 114 -74 161 -90 168 -27 12 -34 35 -34 108 -1 40 -9 71 -30 115 -18 36
-30 76 -30 100 0 22 -9 58 -19 81 -20 44 -73 109 -101 124 -27 14 -92 26 -125
22z m861 -337 c10 -8 26 -15 35 -15 9 0 22 -7 29 -15 7 -8 16 -12 21 -10 11 7
39 -48 39 -77 0 -13 -6 -35 -14 -49 -8 -16 -10 -32 -5 -40 5 -8 9 -20 9 -28 0
-11 -3 -11 -15 -1 -12 10 -14 30 -11 94 4 73 3 76 -5 31 l-10 -51 -36 4 c-23
3 -39 0 -45 -9 -7 -10 -8 -7 -4 10 5 23 4 23 -12 8 -12 -13 -13 -20 -4 -29 9
-9 8 -14 -3 -22 -8 -6 -16 -22 -17 -36 -2 -19 2 -26 20 -28 17 -3 22 2 22 17
0 12 5 21 11 21 5 0 7 5 3 12 -4 7 -3 8 5 4 6 -4 8 -12 5 -18 -5 -7 -2 -9 8
-5 9 3 21 0 27 -6 8 -8 11 -8 11 1 0 6 7 9 15 6 8 -4 15 -11 15 -16 0 -6 -7
-8 -15 -5 -8 4 -17 2 -20 -3 -3 -4 0 -10 7 -12 7 -3 5 -7 -6 -11 -10 -4 -15
-3 -11 3 10 17 -4 11 -25 -10 -32 -32 -116 -23 -107 11 4 16 1 18 -19 13 -15
-4 -24 -2 -24 5 0 21 23 38 46 33 20 -4 33 17 34 56 0 17 -54 15 -90 -3 l-28
-15 -7 41 c-8 47 0 62 15 28 10 -23 10 -23 5 4 -3 15 0 37 7 50 7 12 12 25 13
30 0 4 5 8 10 8 6 1 21 10 34 20 28 23 60 24 87 4z m-1125 -351 c-33 -104 -26
-160 21 -177 21 -7 -50 -135 -107 -194 -63 -65 -92 -69 -131 -18 -31 41 -74
166 -99 290 -10 50 -22 95 -28 102 -5 7 -47 24 -93 38 -46 14 -84 28 -84 31 0
2 11 2 25 -2 20 -5 24 -3 19 9 -5 14 3 15 62 11 37 -2 73 -8 81 -13 8 -4 48
-75 88 -157 69 -142 72 -150 59 -176 -8 -16 -11 -28 -6 -28 14 0 107 206 136
302 18 59 34 92 49 103 21 15 22 15 25 -19 2 -19 -6 -65 -17 -102z m682 -34
c30 -69 67 -160 83 -202 32 -86 51 -107 26 -28 -15 48 -15 51 9 102 33 73 117
210 137 226 9 6 33 12 54 12 33 0 38 -3 38 -24 0 -18 -7 -25 -30 -29 -41 -9
-57 -39 -81 -153 -33 -155 -104 -314 -140 -314 -28 0 -88 65 -162 176 -66 99
-66 101 -61 155 3 30 14 79 24 110 13 37 17 70 13 95 l-5 39 20 -20 c11 -11
44 -76 75 -145z"/>
<path d="M2547 1349 c-24 -14 -38 -51 -25 -66 5 -7 6 -18 2 -25 -13 -20 -14
-81 -2 -95 14 -17 69 -17 92 0 11 8 17 23 14 38 -2 19 -11 26 -45 33 -43 10
-59 26 -25 26 29 0 59 28 64 59 6 40 -32 55 -75 30z"/>
</g>
</svg>
