<?xml version="1.0" standalone="no"?>
<!DOCTYPE svg PUBLIC "-//W3C//DTD SVG 20010904//EN"
 "http://www.w3.org/TR/2001/REC-SVG-20010904/DTD/svg10.dtd">
<svg version="1.0" xmlns="http://www.w3.org/2000/svg"
 width="750.000000pt" height="1000.000000pt" viewBox="0 0 750.000000 1000.000000"
 preserveAspectRatio="xMidYMid meet">
<metadata>
Created by potrace 1.16, written by Peter Selinger 2001-2019
</metadata>
<g transform="translate(0.000000,1000.000000) scale(0.100000,-0.100000)"
fill="#000000" stroke="none">
<path d="M1750 6562 c-35 -35 -40 -78 -12 -110 9 -12 53 -35 97 -52 44 -17
112 -46 150 -64 l70 -34 -93 -1 c-314 -3 -590 -173 -722 -445 -66 -135 -84
-212 -84 -361 0 -94 5 -137 23 -200 46 -166 141 -315 264 -416 77 -62 239
-143 332 -165 91 -21 268 -22 357 0 298 70 525 295 603 594 25 94 29 217 11
320 -9 50 -16 94 -16 97 0 3 14 5 30 5 43 0 80 39 80 84 0 43 -83 148 -226
287 -182 175 -428 338 -656 434 -148 63 -169 66 -208 27z m613 -632 c76 -29
177 -122 211 -194 98 -207 14 -441 -192 -539 -61 -29 -75 -32 -167 -32 -91 0
-106 3 -165 31 -83 39 -154 110 -194 194 -29 60 -31 73 -31 170 0 93 3 112 27
162 49 105 151 193 258 223 73 20 179 14 253 -15z m-722 -573 c79 -53 102
-144 56 -220 -34 -56 -72 -77 -137 -77 -102 0 -167 71 -158 175 3 29 13 63 24
77 49 67 151 88 215 45z m403 -399 c13 -38 0 -76 -34 -93 -26 -13 -35 -14 -57
-3 -15 7 -34 25 -43 41 -13 24 -13 30 0 54 9 15 26 33 40 40 32 16 82 -4 94
-39z"/>
<path d="M5720 6574 c-80 -27 -342 -161 -435 -221 -191 -125 -393 -309 -502
-457 -45 -61 -51 -83 -31 -119 17 -33 39 -46 77 -47 30 0 33 -2 27 -22 -31
-114 -31 -299 -1 -413 25 -93 98 -233 160 -308 98 -119 236 -209 395 -259 64
-20 96 -23 220 -23 124 0 156 3 220 23 226 71 395 214 495 417 64 132 79 196
79 350 0 182 -34 303 -126 441 -154 231 -431 376 -695 362 -40 -2 -73 -2 -73
-1 0 6 149 77 217 103 95 37 113 53 113 100 0 73 -56 103 -140 74z m-220 -639
c107 -37 199 -129 243 -238 30 -74 29 -201 -2 -280 -66 -168 -222 -267 -402
-254 -142 9 -267 94 -331 224 -109 223 24 501 269 563 51 13 168 5 223 -15z
m608 -575 c36 -22 68 -69 78 -113 20 -95 -59 -189 -161 -189 -142 0 -213 168
-117 276 42 47 143 61 200 26z m-443 -383 c55 -79 -50 -165 -112 -93 -27 32
-29 53 -7 84 30 44 92 48 119 9z"/>
<path d="M4345 4425 c-27 -26 -33 -72 -15 -106 6 -10 43 -35 83 -55 91 -45
127 -79 127 -116 0 -74 -76 -166 -155 -188 -85 -24 -149 -9 -485 109 -179 63
-250 56 -492 -52 -154 -69 -190 -82 -255 -92 -45 -7 -103 15 -103 39 0 8 18
37 40 64 46 59 56 91 39 124 -18 34 -40 47 -78 48 -29 0 -43 -8 -82 -50 -69
-74 -92 -127 -87 -200 5 -74 39 -121 119 -165 47 -26 64 -30 129 -29 95 0 160
20 340 101 83 37 171 70 206 76 68 12 65 12 369 -95 147 -51 152 -52 265 -53
107 0 119 2 175 29 76 38 153 114 191 191 25 51 29 72 29 140 0 70 -4 86 -28
128 -34 57 -86 98 -185 143 -87 40 -115 42 -147 9z"/>
</g>
</svg>
